# xmcd
#
# Track frame offsets:
#	150
#	10147
#	21710
#	33108
#	45637
#	55666
#	66544
#	78019
#	92509
#	104714
#	115732
#	126032
#	137405
#	147590
#	160416
#	174892
#	184799
#	196875
#	206484
#	217526
#	229340
#	240594
#	252270
#	263053
#	273135
#	287002
#	298103
#	306821
#
# Disc length: 4236 seconds
#
# Revision: 1
# Processed by: cddbd v1.5.2PL0 Copyright (c) Steve Scherf et al.
# Submitted via: audiograbber 1.83.01
#
DISCID=8b108a1c
DTITLE=Various Artist - West Coast Soul 2 - Call On Me [CD2)
DYEAR=2016
DGENRE=Soul
TTITLE0=Eddie Wilson - Just Call On Me
TTITLE1=The Sevilles - Baby
TTITLE2=Marilyn Brown - Walk On The Wild Side
TTITLE3=Mack Starr - Bundle of Joy
TTITLE4=The Idols - Just a Little Bit More
TTITLE5=The Outstanders - What a Love
TTITLE6=Mel Williams - Promises, Promises, Promises
TTITLE7=Reggie Taylor - I Wanna Love You
TTITLE8=Pie De Santo - I Cry Alone Sugar
TTITLE9=Ernie Shelby - Summertime
TTITLE10=Bobby St. James - Taken for a Ride
TTITLE11=Robbin Ray - It's a Lonesome Old World
TTITLE12=Johnnie Taylor - I'll Always Be in Love With You
TTITLE13=Joe Simon - I Keep Remembering
TTITLE14=Eugene Church - Without Soul
TTITLE15=Dorothy Berry - You're Driving Me Crazy
TTITLE16=Arlene Williams - Duck All Over Town (Pt. 1)
TTITLE17=Arthur K. Adams - I'll Never Forget You
TTITLE18=Cookie Jackson - Love Brings Pain
TTITLE19=Fred Hughes - My Heart Cries Oh
TTITLE20=Johnny Wesley - You Still Need Me
TTITLE21=Lee Harvey - Prove It
TTITLE22=Ocie Smith - Try a Little Tenderness
TTITLE23=Esko Wallace - Sneaking and Cheating
TTITLE24=Ray Charles - Misery in My Heart
TTITLE25=Johnny Love - Chills and Fever
TTITLE26=Little Lynn and The 4 Rivers - Send My Records C.O.D.
TTITLE27=Wally Cox - I Can't Help It
EXTD=
EXTT0=
EXTT1=
EXTT2=
EXTT3=
EXTT4=
EXTT5=
EXTT6=
EXTT7=
EXTT8=
EXTT9=
EXTT10=
EXTT11=
EXTT12=
EXTT13=
EXTT14=
EXTT15=
EXTT16=
EXTT17=
EXTT18=
EXTT19=
EXTT20=
EXTT21=
EXTT22=
EXTT23=
EXTT24=
EXTT25=
EXTT26=
EXTT27=
PLAYORDER=
